<?xml version="1.0" encoding="utf-8"?>
<!-- Generator: Adobe Illustrator 26.0.0, SVG Export Plug-In . SVG Version: 6.00 Build 0)  -->
<svg version="1.1" id="Capa_1" xmlns="http://www.w3.org/2000/svg" xmlns:xlink="http://www.w3.org/1999/xlink" x="0px" y="0px"
	 viewBox="0 0 142 137" style="enable-background:new 0 0 142 137;" xml:space="preserve">
<style type="text/css">
	.st0{fill:#534741;}
</style>
<path class="st0" d="M135,49.5C123.2,23.8,94.7,7.6,66.9,11.6c-27.5,3.2-50,25.6-51.5,53.3c-3,43.7,44.8,72.2,80.1,44.8
	c33.4-28.9,8.1-85.2-36.3-71.5c-34.6,11.4-29.9,64.5,8.1,65.4c30.1,0.3,41.7-39.7,14.6-53.9C69.8,43.6,53.2,48.4,47.3,61
	c-3.1,6.1-3.6,13.7-1.1,20.4C39.6,68,47.1,50.3,61.5,45.6c14.4-5.6,32,1.8,38.3,16c10.7,23.2-7.1,49.4-32.3,49.7
	c-36.2,0.8-53.3-42.4-30.9-69.1c21.5-26.5,65.7-19.4,79.7,11.2c18.9,39.7-15.2,82.6-57.8,76.6C6.9,123-9.9,58.9,26.3,24.2
	C60.2-8.3,118.9,5.6,135,49.5L135,49.5z"/>
</svg>
