<?xml version="1.0" encoding="utf-8"?>
<!-- Generator: Adobe Illustrator 26.0.0, SVG Export Plug-In . SVG Version: 6.00 Build 0)  -->
<svg version="1.1" id="Capa_1" xmlns="http://www.w3.org/2000/svg" xmlns:xlink="http://www.w3.org/1999/xlink" x="0px" y="0px"
	 viewBox="0 0 313.4 109" style="enable-background:new 0 0 313.4 109;" xml:space="preserve">
<style type="text/css">
	.st0{fill:#534741;}
</style>
<path class="st0" d="M105.1,38C95.6,17.3,72.6,4.2,50.2,7.5C28.1,10,10,28.1,8.8,50.3c-2.4,35.2,36.1,58.1,64.4,36.1
	c26.9-23.3,6.6-68.5-29.2-57.6C16.2,38,20,80.7,50.6,81.5c24.2,0.2,33.5-31.9,11.7-43.3c-9.8-4.9-23.1-1.1-27.9,9.1
	c-2.5,4.9-2.9,11-0.9,16.4c-5.3-10.8,0.8-25,12.3-28.8c11.6-4.5,25.8,1.4,30.8,12.9c8.6,18.6-5.7,39.8-26,40
	C21.5,88.4,7.8,53.6,25.8,32.1c17.3-21.3,52.9-15.6,64.1,9c15.2,32-12.2,66.4-46.5,61.6C2,97.1-11.6,45.6,17.5,17.6
	C44.8-8.5,92.1,2.7,105.1,38L105.1,38z"/>
<g>
	<path class="st0" d="M109.6,75.6V30.9h19.2v6.4h-12.1v11.8h9.6v6.4h-9.6v13.7h12.1v6.4H109.6z"/>
	<path class="st0" d="M134.7,75.6l8.1-22.9L135,30.9h7.4l4.8,14.6l4.9-14.6h6.6l-7.7,21.8l8.1,22.9h-7.4l-5.2-15.8l-5.3,15.8H134.7z
		"/>
	<path class="st0" d="M181.6,75.6l-1.2-8.8h-8.1l-1.2,8.8h-6.5l7.3-44.7h9.5l7.3,44.7H181.6z M173.1,60.8h6.3l-3.2-22.6L173.1,60.8z
		"/>
	<path class="st0" d="M195.7,75.6V30.9h9.9l4.7,32.5l4.7-32.5h9.9v44.7h-6.6V41.7L213,75.6h-5.9l-5.2-33.9v33.9H195.7z"/>
	<path class="st0" d="M233.9,75.6V30.9h10.4c7,0,10.5,3.7,10.5,11.1v4.4c0,7.3-3.5,11.1-10.5,11.1H241v18.2H233.9z M241,51h3.3
		c2.3,0,3.4-1.2,3.4-4.2v-5.3c0-3.1-1.1-4.2-3.4-4.2H241V51z"/>
	<path class="st0" d="M262.4,75.6V30.9h7v38.3H281v6.4H262.4z"/>
	<path class="st0" d="M288.2,75.6V30.9h19.2v6.4h-12.1v11.8h9.6v6.4h-9.6v13.7h12.1v6.4H288.2z"/>
</g>
<g>
	<path class="st0" d="M191.5,102.8c-2.8,0-4.1-0.9-4.1-0.9v-3.1h0.2c0.3,1.5,1.1,3.8,3.9,3.8c2.1,0,2.5-2.5,0.6-3.9l-2.5-1.6
		c-1.9-1.2-3.1-2.7-1.8-4.6c0,0,0.8-1.2,3.2-1.2c2.5,0,3.9,0.8,3.9,0.8v2.7h-0.2c-0.2-1.2-1-3.2-3.6-3.2c-1.7,0-2.7,2.2-0.5,3.6
		l2.6,1.7c2.1,1.4,2.8,3.2,1.7,4.7C194.7,101.4,194,102.8,191.5,102.8z"/>
	<path class="st0" d="M199.9,102.6h-3v-0.2c0.6-0.2,0.6-0.7,0.6-1.5v-8.4c0-0.6-0.1-0.8-0.8-1v-0.2l2.5-0.5v10.2
		c0,0.9,0.1,1.3,0.7,1.5V102.6z"/>
	<path class="st0" d="M205,102.8c-2.4,0-3.7-1.7-3.7-3.8c0-2.1,1.3-3.8,3.7-3.8c2.4,0,3.8,1.7,3.8,3.8
		C208.8,101,207.5,102.8,205,102.8z M205,95.3c-1.2,0-1.7,0.7-1.7,3.6c0,2.9,0.6,3.6,1.7,3.6c1.2,0,1.7-0.7,1.7-3.6
		C206.8,96,206.2,95.3,205,95.3z"/>
	<path class="st0" d="M217.1,96.4c-0.1-0.2-0.2-0.4-0.2-0.6c0-0.1-0.4,0-0.7,0.3c0.4,0.4,0.6,1,0.6,1.5c0,1.3-1.1,2.4-3.1,2.4
		c-0.6,0-1.1-0.1-1.5-0.3c-0.6,0.2-1.5,1.6,0.3,1.6h2.1c1.1,0,3,0,2.7,2.3c0,0-0.1,1.3-1.7,2.2c-2.2,1.2-4.9,1-5.6-0.2
		c-0.6-1.1,0.3-2.4,1.3-2.9c-0.4-0.2-0.8-0.6-0.8-1.3c0,0,0-1.4,1.5-1.9c-0.8-0.4-1.3-1.2-1.3-2.1c0-1.3,1.1-2.4,3-2.4
		c1,0,1.8,0.3,2.3,0.7c0.4-0.6,1.1-0.9,1.5-0.9c0.3,0,0.6,0,0.8,0.3c0.3,0.4,0.2,0.9-0.1,1.2C217.9,96.8,217.4,96.7,217.1,96.4z
		 M215.5,105.8c1.2-0.7,1-1.7,1-1.7s-0.1-0.8-1.4-0.8H213c-0.2,0-0.8,0-1.4-0.2c-1.5,0.9-0.3,2.3-0.3,2.2
		C212.1,106.3,214.1,106.7,215.5,105.8z M213.8,95.5c-0.8,0-1.4,0.4-1.4,2.2c0,1.8,0.7,2.2,1.4,2.2c0.7,0,1.4-0.4,1.4-2.2
		C215.2,95.9,214.5,95.5,213.8,95.5z"/>
	<path class="st0" d="M226.9,101.7c-0.1,0.5-0.8,1.1-1.7,1.1c0,0-1.3,0-1.5-1.3c-0.2,0.7-1.2,1.3-2.3,1.3c0,0-1.8,0-1.8-1.6
		c0-1.7,1.3-1.9,4.1-2.6v-1c0-1.6-0.9-2.5-2.1-2c-0.6,0.3-0.6,0.6-0.5,0.6c0.2,0,0.4,0.1,0.5,0.3c0.3,0.4,0.2,0.9-0.2,1.2
		c-0.4,0.3-0.9,0.2-1.2-0.2c-0.2-0.3-0.2-0.6-0.1-0.9c0.1-0.3,0.4-0.7,1.2-1.2c0.7-0.4,1.5-0.3,1.5-0.3c1.9,0,2.4,1.3,2.4,3.2v2.6
		c0,0,0,1.1,0.8,1.1c0,0,0.4,0,0.4-0.3L226.9,101.7z M221.3,100.8c0,0.2,0.1,1.2,1.2,1.2c0.7,0,1.1-0.5,1.2-0.9c0,0,0-2.3,0-2.3
		C222,99.1,221.3,99.9,221.3,100.8z"/>
	<path class="st0" d="M235.4,102.6h-3v-0.2c0.6-0.2,0.6-0.7,0.6-1.5v-3.3c0-0.9-0.5-1.6-1.5-1.6c-0.7,0-1.4,0.7-1.5,1.3v3.5
		c0,0.9,0.1,1.3,0.7,1.5v0.2h-3v-0.2c0.6-0.2,0.6-0.6,0.6-1.5v-4c0-0.6-0.1-0.8-0.8-1v-0.2l2.5-0.5v1.7c0.4-1,1.6-1.7,2.6-1.7
		c1.3,0,2.1,0.6,2.1,2.5v3.3c0,0.9,0.1,1.3,0.7,1.5V102.6z"/>
	<path class="st0" d="M249.4,99.2v3.4h-8.5v-0.2c0.7,0,0.9-0.7,0.9-1.8v-7.3c0-1-0.2-1.7-0.9-1.7v-0.2h8.3v3H249
		c-0.3-2.7-3.8-2.7-4.5-2.7h-0.7v5.2h0.8c0.2,0,2.3,0,2.4-1.6h0.2v3.5H247c-0.1-1.6-2.2-1.6-2.4-1.6h-0.8v5.3h0.7
		c0.7,0,4.2,0,4.8-3.2H249.4z"/>
	<path class="st0" d="M259.1,102.4v0.2h-3.6v-0.2c0.8,0,0-1.1,0-1.1l-1.1-1.6l-0.6,0.9c-0.4,0.5-1.2,1.9,0.6,1.9v0.2H251v-0.2
		c0.4,0,1.1,0,2.7-2l0.6-0.9l-2.2-3.3c-0.6-0.7-0.9-0.7-1.2-0.7v-0.2h3.5v0.2c-0.4,0-0.7,0.2-0.2,1.1l1,1.5l0.5-0.7
		c0.3-0.4,1.2-1.9-0.5-1.9v-0.2h3.5v0.2c-0.4,0-1.3-0.1-2.9,2l-0.6,0.7l2.3,3.4C258.2,102.4,258.9,102.4,259.1,102.4z"/>
	<path class="st0" d="M267.5,101.7c-0.1,0.5-0.8,1.1-1.7,1.1c0,0-1.3,0-1.5-1.3c-0.2,0.7-1.2,1.3-2.3,1.3c0,0-1.8,0-1.8-1.6
		c0-1.7,1.3-1.9,4.1-2.6v-1c0-1.6-0.9-2.5-2.1-2c-0.6,0.3-0.6,0.6-0.5,0.6c0.2,0,0.4,0.1,0.5,0.3c0.3,0.4,0.2,0.9-0.2,1.2
		c-0.4,0.3-0.9,0.2-1.2-0.2c-0.2-0.3-0.2-0.6-0.1-0.9c0.1-0.3,0.4-0.7,1.2-1.2c0.7-0.4,1.5-0.3,1.5-0.3c1.9,0,2.4,1.3,2.4,3.2v2.6
		c0,0,0,1.1,0.8,1.1c0,0,0.4,0,0.4-0.3L267.5,101.7z M261.9,100.8c0,0.2,0.1,1.2,1.2,1.2c0.7,0,1.1-0.5,1.2-0.9c0,0,0-2.3,0-2.3
		C262.6,99.1,261.9,99.9,261.9,100.8z"/>
	<path class="st0" d="M280.1,102.6h-3v-0.2c0.6-0.2,0.6-0.7,0.6-1.5v-3.3c0-1-0.4-1.6-1.3-1.6c-0.7,0-1.4,0.8-1.4,1.4
		c0,0.1,0,0.1,0,0.2l0,3.3c0,0.9,0.1,1.3,0.7,1.5v0.2h-3v-0.2c0.6-0.2,0.6-0.7,0.6-1.5v-3.3c0-1-0.4-1.6-1.3-1.6
		c-0.7,0-1.3,0.8-1.4,1.3v3.5c0,0.9,0.1,1.3,0.7,1.5v0.2h-3v-0.2c0.6-0.2,0.6-0.6,0.6-1.5v-4c0-0.6-0.1-0.8-0.8-1.1v-0.2l2.5-0.5
		v1.6c0.4-0.9,1.3-1.6,2.4-1.6c1.1,0,1.8,0.5,2,1.7c0.3-1,1.3-1.7,2.4-1.7c1.3,0,2.1,0.6,2.1,2.5v3.3c0,0.9,0.1,1.3,0.7,1.5V102.6z"
		/>
	<path class="st0" d="M285.4,102.8c-0.8,0-1.4-0.2-1.9-0.5v3c0,0.9,0.1,1.2,0.7,1.4v0.2h-3v-0.2c0.6-0.2,0.6-0.6,0.6-1.4v-8.5
		c0-0.6-0.1-0.7-0.8-0.9v-0.2l2.5-0.5v1.3c0.5-0.9,1.6-1.3,2.4-1.3c2,0,3.4,1.5,3.4,3.9C289.3,101.5,287.6,102.8,285.4,102.8z
		 M285.2,95.6c-1,0-1.6,0.8-1.7,1.8v3c0.1,1.5,1,2.1,1.9,2.1c1.1,0,1.9-0.8,1.9-3.3C287.3,96.6,286.6,95.6,285.2,95.6z"/>
	<path class="st0" d="M293.9,102.6h-3v-0.2c0.6-0.2,0.6-0.7,0.6-1.5v-8.4c0-0.6-0.1-0.8-0.8-1v-0.2l2.5-0.5v10.2
		c0,0.9,0.1,1.3,0.7,1.5V102.6z"/>
	<path class="st0" d="M301.8,100.7c-0.2,0.8-1.1,2.1-3.2,2.1c-2,0-3.5-1.8-3.5-3.8c0-2.3,1.5-3.9,3.6-3.9c2.1,0,3.3,1.2,3.3,3.7H297
		c0.1,1.9,1,2.7,2.1,2.9c0.9,0.1,2.1-0.3,2.5-1.1L301.8,100.7z M300.4,98.5c0-2.2-0.8-3.2-1.7-3.2c-0.9,0-1.8,1.4-1.8,3.2H300.4z"/>
	<path class="st0" d="M303.9,101.5c0-0.6,0.5-1.2,1.2-1.2c0.6,0,1.2,0.5,1.2,1.2c0,0.6-0.5,1.2-1.2,1.2
		C304.4,102.7,303.9,102.2,303.9,101.5z"/>
</g>
</svg>
